<?xml version="1.0" standalone="no"?><!DOCTYPE svg PUBLIC "-//W3C//DTD SVG 1.1//EN" "http://www.w3.org/Graphics/SVG/1.1/DTD/svg11.dtd"><svg class="icon" width="200px" height="200.00px" viewBox="0 0 1024 1024" version="1.1" xmlns="http://www.w3.org/2000/svg"><path fill="#333333" d="M832 106.666667H192C145.066667 106.666667 106.666667 145.066667 106.666667 192v640c0 46.933333 38.4 85.333333 85.333333 85.333333h640c46.933333 0 85.333333-38.4 85.333333-85.333333V192c0-46.933333-38.4-85.333333-85.333333-85.333333zM311.466667 689.066667c-53.333333 0-98.133333-42.666667-98.133334-96v-164.266667c0-53.333333 42.666667-96 98.133334-96v-2.133333H469.333333l-12.8 55.466666-136.533333 29.866667c-12.8 4.266667-21.333333 12.8-21.333333 25.6v138.666667c0 12.8 10.666667 23.466667 21.333333 25.6l134.4 27.733333 12.8 55.466667h-155.733333z m256-189.866667v27.733333h-108.8v-27.733333h108.8zM810.666667 595.2c0 53.333333-42.666667 96-98.133334 96H554.666667l12.8-55.466667 134.4-27.733333c12.8-4.266667 21.333333-12.8 21.333333-25.6v-138.666667c0-12.8-10.666667-23.466667-21.333333-25.6l-134.4-27.733333-12.8-55.466667h155.733333c53.333333 0 98.133333 42.666667 98.133333 96v164.266667z" /></svg>