<?xml version="1.0" standalone="no"?><!DOCTYPE svg PUBLIC "-//W3C//DTD SVG 1.1//EN" "http://www.w3.org/Graphics/SVG/1.1/DTD/svg11.dtd"><svg class="icon" width="200px" height="200.00px" viewBox="0 0 1024 1024" version="1.1" xmlns="http://www.w3.org/2000/svg"><path fill="#333333" d="M512 557.226667l190.72 190.762666L512 938.666667l-190.72-190.72L512 557.226667z m-341.333333 130.56L336.170667 853.333333H170.666667v-165.546666z m682.666666 0V853.333333h-165.546666L853.333333 687.786667z m-105.386666-366.506667L938.666667 512l-190.677334 190.72-190.72-190.72 190.677334-190.72z m-471.893334 0L466.773333 512l-190.762666 190.677333L85.333333 512l190.72-190.72zM512 85.333333l190.677333 190.677334L512 466.730667 321.28 276.053333 512 85.333333zM336.170667 170.666667l-165.546667 165.504L170.666667 170.666667h165.504zM853.333333 170.666667v165.504l-165.546666-165.546667L853.333333 170.666667z" /></svg>