<?xml version="1.0" standalone="no"?><!DOCTYPE svg PUBLIC "-//W3C//DTD SVG 1.1//EN" "http://www.w3.org/Graphics/SVG/1.1/DTD/svg11.dtd"><svg class="icon" width="200px" height="200.00px" viewBox="0 0 1024 1024" version="1.1" xmlns="http://www.w3.org/2000/svg"><path fill="#333333" d="M513.504 96c-229.536-0.544-416 185.152-416.768 414.88L96 827.2a99.456 99.456 0 0 0 98.88 100.064h0.544l315.84 0.736c229.504 0.544 416.192-185.152 416.736-414.88C928.544 283.392 743.04 96.544 513.504 96z m91.872 160.384h0.384a134.08 134.08 0 0 1 31.296 3.552c17.312 2.816 30.752 18.432 30.752 37.184 0 24-23.04 43.104-46.944 37.056-42.432-9.152-102.08 22.336-102.24 85.088l-0.128 72.8a13.856 13.856 0 0 0 13.76 13.92h0.064l52.064 0.128c50.336 0.32 50.176 76.672-0.32 76.512l-66.016-0.128-0.16 86.752c-0.32 107.36-99.744 179.392-194.688 159.424-8.832 0-30.816-13.44-30.816-37.472a38.56 38.56 0 0 1 37.92-38.144c9.76 0 9.76 2.432 24.32 2.432a86.656 86.656 0 0 0 86.944-86.304v-0.256l0.128-72.8c0-6.976-7.008-13.952-13.824-13.952l-52.064-0.192c-50.496-0.16-50.304-76.512 0.192-76.352l66.016 0.192 0.096-86.752a162.976 162.976 0 0 1 163.264-162.688z m64 13.184a164.384 164.384 0 0 1 90.624 98.88l-84.128-84.64a40.896 40.896 0 0 0-6.496-14.24z m8.992 25.44l85.504 86.88c2.752 11.36 4.224 23.008 4.384 34.688l-95.744-97.024c3.52-7.296 5.856-14.208 5.856-22.112v-2.432z m-9.6 30.368l99.616 100.256c-0.384 8.64-1.6 17.248-3.584 25.696l-111.36-111.68c6.08-3.648 11.264-8.48 15.296-14.272z m12.224 51.872l82.24 82.688c-1.984 7.52-4.448 14.944-7.296 22.176l-63.936-64.32a89.92 89.92 0 0 0-11.008-40.544z m10.496 50.304l61.184 61.696a130.24 130.24 0 0 1-10.368 18.56l-56.352-56.672c3.136-7.488 4.992-15.488 5.536-23.584z m-8.32 30.56l55.456 55.648c-4.16 5.632-8.608 11.072-13.312 16.256l-54.08-54.272c4.64-5.44 8.64-11.328 11.968-17.6z m-16.736 22.752l54.08 54.272a195.84 195.84 0 0 1-15.648 13.92l-54.688-55.008c5.888-3.776 11.36-8.224 16.256-13.184z m-23.232 16.576l56.064 55.616a255.616 255.616 0 0 1-18.4 11.2l-58.88-59.52a76.8 76.8 0 0 0 21.216-7.296z m-303.648 8.992a77.76 77.76 0 0 0-11.936 17.696l-13.12-13.184a132.8 132.8 0 0 1 25.056-4.48z m-32.672 6.496l18.24 18.432-1.376 12.384c0.032 6.624 1.28 13.216 3.68 19.392L285.632 520.96c6.848-3.296 13.952-6.048 21.248-8.064z m-28.192 11.52l59.2 59.424c-7.584 1.408-14.976 3.84-21.888 7.328l-54.688-55.648c5.568-4.096 11.36-7.744 17.376-11.104z m353.696 0.928l41.792 42.112a115.68 115.68 0 0 1-21.248 8.192l-18.24-18.432 1.44-12.576a53.984 53.984 0 0 0-3.744-19.296z m-377.28 14.176l54.72 55.04c-5.856 3.84-11.296 8.256-16.256 13.152l-54.08-53.632c4.672-5.376 9.92-10.24 15.648-14.56z m-20.608 19.072l54.144 54.24a88.96 88.96 0 0 0-11.968 17.632l-55.488-55.552c4.32-5.888 8.832-11.2 13.312-16.32z m397.696 5.952l13.184 13.12a156.064 156.064 0 0 1-24.96 4.48 55.04 55.04 0 0 0 11.776-17.6z m-414.72 16.224l56.416 56.704a73.888 73.888 0 0 0-5.568 23.552L207.136 599.36a148.48 148.48 0 0 1 10.368-18.56z m-13.6 25.28l63.936 64.736c0.512 14.08 4.032 27.936 10.368 40.544l-81.6-82.88c2.176-7.552 4.512-14.848 7.296-22.4z m-8.992 30.496l111.872 112.32a58.56 58.56 0 0 0-15.36 13.472l-99.776-99.424c0.16-8.864 1.248-17.728 3.264-26.368z m-3.264 36.096l95.872 96.32a48.384 48.384 0 0 0-5.536 22.208v1.664L196.128 706.56a135.808 135.808 0 0 1-4.48-33.888z m8.192 47.584l84.128 84.544c1.312 5.12 3.52 9.92 6.496 14.272a164.608 164.608 0 0 1-90.624-98.816z" /></svg>