<?xml version="1.0" standalone="no"?><!DOCTYPE svg PUBLIC "-//W3C//DTD SVG 1.1//EN" "http://www.w3.org/Graphics/SVG/1.1/DTD/svg11.dtd"><svg class="icon" width="200px" height="200.00px" viewBox="0 0 1024 1024" version="1.1" xmlns="http://www.w3.org/2000/svg"><path fill="#333333" d="M424.789333 4.138667a309.418667 309.418667 0 0 0-53.333333 4.906666C187.605333 42.666667 58.24 201.813333 47.232 306.602667c-5.333333 51.413333 22.4 89.941333 37.674667 106.922666 41.344 45.909333 123.733333 80.981333 176.682666 110.08-76.586667 65.28-111.701333 97.152-146.304 133.461334-51.797333 54.357333-88.192 114.176-88.32 157.013333 0 13.781333-2.261333 57.813333 15.701334 92.586667 6.741333 13.056 25.941333 56.618667 83.797333 89.258666 36.992 20.906667 89.685333 28.586667 141.226667 21.205334 159.658667-22.784 373.461333-158.165333 525.994666-284.245334 97.237333-80.384 168.32-158.250667 188.842667-196.565333 16.554667-30.933333 18.389333-86.442667 8.789333-121.301333-27.306667-98.901333-249.173333-301.525333-430.549333-383.061334A331.136 331.136 0 0 0 424.789333 4.138667z m-0.298666 2.858666a313.216 313.216 0 0 1 141.525333 31.957334c146.474667 71.978667 393.941333 274.346667 412.202667 376.064 22.613333 125.781333-420.352 466.304-689.792 519.424-104.533333 20.522667-193.664 26.154667-234.325334-84.266667-35.242667-95.701333 33.109333-165.717333 133.76-257.706667 41.813333-38.186667 75.093333-66.730667 125.226667-109.056 2.773333-2.901333-241.493333-87.125333-249.258667-183.808C55.765333 200.234667 213.12 16.810667 414.549333 7.338667c3.328-0.170667 6.613333-0.298667 9.941334-0.341334zM419.754667 29.013333a239.018667 239.018667 0 0 0-21.418667 1.322667c-98.944 10.410667-117.888 23.168-207.530667 90.965333-30.037333 22.741333-85.333333 78.037333-99.456 143.616-5.418667 25.002667 0.981333 46.549333 18.944 61.696 57.6 48.426667 154.026667 87.722667 233.173334 125.738667 23.168 11.093333 7.850667 31.274667-29.525334 63.658667-94.293333 81.621333-221.781333 180.992-230.698666 256.725333-4.181333 35.669333 8.021333 84.138667 51.328 108.970667 50.602667 28.970667 155.605333 10.069333 225.749333-16.042667 102.485333-38.186667 237.098667-122.410667 343.978667-205.184 111.104-86.101333 214.442667-195.413333 219.562666-213.248 6.272-21.888 5.632-42.154667-6.485333-65.408-18.986667-36.48-44.416-63.616-71.722667-93.994667-73.301333-77.226667-150.784-145.109333-243.541333-197.12-60.714667-34.048-114.773333-62.72-182.357333-61.696z m45.482666 153.344c23.125333 0 49.792 7.296 78.421334 21.162667 71.466667 34.56 144.853333 125.312-0.64 177.536-39.552 14.208-165.077333-34.901333-161.237334-101.888 3.797333-66.474667 36.138667-96.853333 83.456-96.810667z m12.074667 57.856c-13.44-0.085333-24.362667 3.328-29.397333 11.093334-23.552 36.48-12.8 62.336 9.002666 78.848 8.106667-19.370667 91.221333 1.792 90.88 19.968 0.853333-0.426667 1.706667-0.853333 2.346667-1.365334 72.106667-54.272-19.968-108.202667-72.832-108.544z" /></svg>