<?xml version="1.0" standalone="no"?><!DOCTYPE svg PUBLIC "-//W3C//DTD SVG 1.1//EN" "http://www.w3.org/Graphics/SVG/1.1/DTD/svg11.dtd"><svg class="icon" width="200px" height="200.00px" viewBox="0 0 1024 1024" version="1.1" xmlns="http://www.w3.org/2000/svg"><path fill="#333333" d="M917.92768 345.898667a41.642667 41.642667 0 0 0-30.208 11.264 42.368 42.368 0 0 0 27.306667 73.130666 42.282667 42.282667 0 0 0 43.690666-40.704 42.325333 42.325333 0 0 0-40.746666-43.690666z m6.912 46.165333c-10.325333 0-18.688-5.589333-18.688-12.458667 0-6.954667 8.362667-12.501333 18.688-12.501333 10.368 0 18.773333 5.546667 18.773333 12.501333 0 6.826667-8.405333 12.458667-18.773333 12.458667z m98.389333 50.346667c0.298667-0.256 1.024-0.853333 0.938667-1.450667-2.346667-14.634667-24.106667-85.504-40.618667-102.570667-4.522667-4.650667-8.149333-9.216-15.530666-13.525333-59.648-34.730667-201.088-55.722667-207.744-56.661333 0 0-0.64-0.170667-1.109334 0.298666-0.384 0.341333-0.426667 1.024-0.426666 1.024l-0.64 32.597334c-14.464-4.864-119.466667-38.826667-217.941334-42.24C456.701013 257.024 335.101013 246.186667 173.906347 345.301333l-4.736 2.986667C93.35168 395.52 40.99968 453.845333 13.650347 521.557333c-8.576 21.333333-20.138667 69.461333-8.704 114.688 4.949333 19.797333 14.122667 39.68 26.496 57.472 27.989333 40.234667 74.965333 66.901333 125.568 71.424 71.424 6.4 125.482667-25.685333 144.725333-85.76 13.226667-41.429333 0-102.272-50.688-133.290666-41.258667-25.216-85.589333-19.498667-111.317333-2.474667-22.314667 14.805333-34.944 37.802667-34.730667 63.018667 0.512 44.8 39.125333 68.608 66.858667 68.693333 8.064 0 16.128-1.408 25.258666-4.394667a39.296 39.296 0 0 0 9.685334-4.266666l1.066666-0.64 0.64-0.426667-0.213333 0.128a22.826667 22.826667 0 0 0 9.258667-25.045333 22.741333 22.741333 0 0 0-26.112-16.085334l-1.536 0.341334-2.133334 0.64-3.072 1.066666c-6.4 1.578667-11.178667 1.706667-12.202666 1.749334-3.242667-0.213333-19.2-4.992-19.2-22.485334v-0.213333c0-6.442667 2.56-10.965333 3.968-13.397333 4.992-7.808 18.56-15.445333 36.949333-13.866667 24.106667 2.133333 41.514667 14.506667 53.034667 37.802667 10.666667 21.674667 7.893333 48.384-7.253334 67.925333-14.933333 19.370667-41.642667 27.605333-77.184 23.765333a105.813333 105.813333 0 0 1-83.029333-56.618666c-16.597333-31.36-17.493333-68.565333-2.346667-97.109334 36.266667-68.437333 104.746667-67.712 142.250667-61.226666 55.552 9.642667 118.784 60.885333 141.184 120.064 3.626667 9.386667 5.461333 16.896 7.082667 23.722666l2.432 10.24 62.72 30.634667c1.365333 0.64 1.834667 0.853333 2.346666 0.469333 0.682667-0.469333 0.298667-1.792 0.298667-1.792-0.426667-1.408-1.28-2.688-2.773333-20.266666-1.152-15.573333-3.584-58.24 17.92-79.36 8.32-8.32 20.992-15.658667 31.061333-18.048 41.130667-10.026667 89.344-3.114667 134.954667 49.664 23.594667 27.306667 35.114667 39.68 40.917333 45.269333 0 0 1.28 1.28 2.005333 1.834667 0.768 0.64 1.28 1.152 2.346667 1.749333 1.92 1.066667 78.421333 36.266667 78.421333 36.266667s0.938667 0.469333 1.578667-0.341334c0.682667-0.853333 0.042667-1.621333 0.042667-1.621333-0.512-0.597333-48.512-62.634667-39.978667-113.706667 6.741333-40.704 39.125333-36.992 83.925333-31.957333 14.634667 1.706667 31.274667 3.626667 48.512 4.010667 48.085333 0.298667 99.925333-8.576 131.84-22.570667 20.693333-8.96 33.877333-14.933333 42.154667-22.442667 2.986667-2.474667 4.522667-6.485333 6.101333-10.794666l1.152-2.816a134.4 134.4 0 0 0 4.138667-14.848c0.384-1.792 0.768-3.541333-0.682667-4.693334-1.365333-1.024-4.437333 0.853333-4.437333 0.853334-14.037333 8.448-49.066667 24.448-81.877333 25.130666-40.704 0.810667-123.178667-41.216-131.712-45.653333-5.717333-13.653333-11.434667-27.264-17.237334-40.832 59.008 38.869333 107.946667 60.373333 145.408 63.658667 41.685333 3.754667 74.24-19.029333 88.32-28.501334 1.834667-1.194667 3.669333-2.56 5.376-3.925333z m-167.381333-55.936c0.597333-16.170667 7.381333-31.146667 19.2-42.154667a60.330667 60.330667 0 0 1 43.392-16.213333 60.714667 60.714667 0 0 1 58.453333 62.634666 60.373333 60.373333 0 0 1-62.677333 58.368 60.757333 60.757333 0 0 1-58.368-62.634666z" /></svg>