<?xml version="1.0" standalone="no"?><!DOCTYPE svg PUBLIC "-//W3C//DTD SVG 1.1//EN" "http://www.w3.org/Graphics/SVG/1.1/DTD/svg11.dtd"><svg class="icon" width="200px" height="200.00px" viewBox="0 0 1024 1024" version="1.1" xmlns="http://www.w3.org/2000/svg"><path fill="#333333" d="M193.692 289.602c4.83-0.467 5.482 1.735 7.994 3.337 18.037 11.203-16.035 27.682-23.902 27.879-2.978 0.141-6.644-1.62-7.851-3.305-4.808-6.238 0.763-8.641 4.258-12.114l2.082-2.655c1.185-3.581 13.103-12.854 17.418-13.143v0zM223.886 268.248c2.383-0.92 10.878-3.157 14.333 3.263 3.4 6.419-1.605 46.582-1.605 72.35 0 4.9-1.398 13.382 0 18.083 0.271 0.879 8.557 9.55 9.504 9.89 6.786 1.702 31.593-1.585 33.42-4.989 2.232-4.317 0.794-9.058 1.54-14.787-14.225 0-29.243-5.548-30.155-6.583-0.892-0.962-3.362-2.894 0-6.583 3.465-3.658 19.873-5.663 31.808-4.932-0.794-9.773 2.359-20.919-3.194-21.38-5.498-0.353-23.329-3.033-25.451-4.957-2.090-1.824-4.085-5.393-3.164-9.822 0.915-4.365 2.994-4.365 4.776-4.875 8.495-2.813 19.228 1.208 23.839 3.263 19.617 8.853 24.124 16.381 22.241 42.685-2.146 28.516 4.274 36.363-15.923 47.691-6.263 3.509-7.151 5.755-19.014 4.875-5.007-0.279-18.196-4.234-25.507-1.553-0.77 0.204-2.281 4.924-5.221 5.59-1.796 2.013-0.365 1.882-1.089 2.588-0.709 0.756 0 3.337 0 3.337 5.466 1.578 9.003 1.076 14.318 3.214l19.046 11.573c5.331 7.242 6.134 26.426 1.629 34.458-2.582 4.488-9.988 7.003-12.769 11.573-0.945 1.603-0.572 4.826-1.54 6.486 2.025 1.543 1.313 3.519 3.164 5.039 2.813 1.997 5.705 0.222 9.52 1.578 4.521 1.621 10.583 5.737 15.914 8.285 0 0.494 0 1.112 0 1.611 4.043 0.947 8.526-1.019 12.755 0 1.263 0.231 6.142 4.373 7.905 4.965 9.789 2.524 15.614-0.822 19.087 8.107 2.654 7.217 1.144 18.61-4.729 21.478-17.537 7.973-39.419-10.76-49.306-16.472-4.314-2.507-8.533-2.211-12.769-5.006-6.905-4.373-14.167-14.678-30.13-9.813-2.805 0.89-8.026 8.195-11.212 9.813-3.918 2.032-6.668 1.357-11.093 3.337-10.369 4.554-25.897 20.165-46.055 13.111-0.612-0.141-2.845-4.431-3.156-4.793-5.339-7.076-3.577-7.761-1.644-16.462 6.555 0 14.875-1.144 19.102-1.769 15.479-2.194 31.115-6.699 36.503-13.078 5.356-6.419-3.362-15.518-11.051-26.271-1.741-2.377-1.24-4.875-3.249-6.617-5.213-4.636-12.062-5.688-17.498-9.798-1.089-0.953-0.945-1.479-2.066-1.628-6.66-0.894-4.172-12.741 8.487-11.616 7.431 0.716 44.1 33.158 46.095 34.549 1.844 1.398 5.221 1.112 7.921 0 1.788-0.773 2.98-3.114 4.18-4.29 2.78-2.819 6.944-6.6 8.526-10.472 1.694-4.257 0-13.177 0-13.177-1.796-1.249-3.926-7.25-7.968-8.213-8.333-2.228-25.211 2.894-28.567 0-3.416-2.903-0.763-10.957 1.518-14.714l11.212-4.996c-0.716-0.502-0.317-1.596-2.066-4.332-1.636-2.762-1.041-2.672-2.735-3.946-11.077-8.145-29.486 2.137-42.924-3.231-15.407-6.313-12.755-12.008-12.755-32.936 0 0-0.548-9.075 0-9.847 0.595-0.833-1.374-16.44 3.29-21.419 4.601-4.884 11.052-2.967 15.885 13.192 9.424 0 22.4 0.92 25.394 1.692 2.986 0.764 4.258 5.286 1.596 8.195-2.742 2.91-7.921 4.521-15.914 6.544-1.907 0.502-6.992 1.448-11.068 1.645-0.866 11.377 0 16.718 3.139 18.159 3.091 1.24 29.004-1.249 31.839-11.564 2.511-9.749 0.612-26.040 0-36.109-0.859-10.899-5.522-48.603-1.686-55.943 0.671-1.266 2.443-2.243 4.78-3.237v0zM118.799 285.188c4.355-1.39 5.45-2.259 11.291 2.762 5.968 4.989 4.076 31.637 3.186 42.734 1.717 0.855 3.591 4.552 4.784 4.996 3.83 1.273 8.796-1.193 12.786 0 2.573 0.683 6.628 3.952 7.921 6.486 1.207 2.672 1.779 5.903 0 8.279-1.852 2.359-5.268 4.323-7.921 4.884-12.786 2.819-18.697-0.067-22.303 11.514-1.962 6.247-2.735 16.193 0 21.428 0.659 1.232 1.32 2.292 4.736 3.181 3.591 0.97 10.035-2.005 11.157-1.553 0.883 0.296 3.147 3.231 3.147 3.231s0.524 7.941-1.549 11.491c-3.099 5.145-12.474 3.896-14.31 11.573-1.16 4.826 1.455 12.559 1.556 14.78 0.279 5.408-0.373 16.349-0.262 17.515 0.683 6.863 0.262 2.169 0.262 2.169 2.918 12.337-0.659 46.877-4.736 52.657 0 0-3.909 5.202-4.569 5.755l-3.407 2.423c-6.174 1.925-15.558 5.73-25.37 3.255-8.232-1.966-20.977-17.707-15.909-32.806 0.073-0.706 3.201-3.287 3.201-3.287s4.473-0.494 6.389 0c4.314 1.218 10.226 13.703 12.625 14.846 2.455 0.986 4.593 0.6 6.397 0 11.498-4.119 6.729-46.613 7.939-62.527-1.686-0.855-3.622-4.578-4.776-4.924-19.142-6.641-25.921 23.698-46.055 4.924-3.678-3.403-0.365-7.882 1.565-11.557 3.743-6.889 9.78-4.184 18.57-6.641 1.24-0.321 6.134-4.596 6.851-4.875 4.449-1.931 8.455 0.502 12.776-1.505 2.543-1.519 10.472-13.507 11.068-16.514 2.313-12.487-2.265-35.881-11.068-37.845-6.43-1.373-9.424 2.64-12.776 3.263-5.76 1.218-16.076 3.838-22.193 1.645-0.786-0.198-3.233-3.323-3.233-3.323s-0.548-9.635 1.605-13.060l3.139-2.648c1.175-0.494 4.489-1.876 6.397-2.251 8.144-1.906 17.117 1.43 25.434 0 2.796-0.665 7.103-4.068 9.511-4.996-1.199-8.77-3.869-37.746 1.588-42.734 1.373-1.266 0.215-1.47 4.559-2.745v0zM718.135 419.432c3.734-3.395 13.43-16.776 15.885-21.347 0.437-0.962 3.178-4.947 3.178-4.947 1.313-6.451-2.438-13.605-3.178-18.010-0.215-0.156 2.281-3.287 0-6.602-2.192-3.337-9.463 1.717-14.24 4.941-1.86 1.076-1.438 3.658-3.139 4.89-12.015 8.614-14.326 9.494-27.095 3.27-1.754-2.678-3.465-4.343 0-9.789 3.528-5.565 20.881-14.87 31.807-19.778-0.247-4.043 1.192-10.949 0-14.82-0.247-0.625-4.251-2.747-4.712-3.27-19.832-23.828-11.227-29.574-11.227-29.574s11.847-6.756 19.143-3.305c7.16 3.501 14.739 42.135 23.782 18.107 0.778-1.972 3.663-8.696 3.193-11.557-0.317-2.055-5.959-5.169-6.333-6.552-0.517-1.373 0.127-6.708 0.127-6.708l1.422-3.073c2.090-1.174 6.317-3.353 6.317-3.353s6.452-0.33 9.638 1.652c2.043 1.282 9.209 17.763 9.511 21.414 0.373 4.989-1.398 14.030-3.139 18.043-1.026 1.939-5.491 3.838-6.372 6.625-1.627 4.134 0.080 6.215-1.627 9.789-1.134 2.062-5.85 3.855-6.349 6.583-3.108 14.961 9.441 34.629 11.124 47.691 5.673 46.161-2.059 100.494-28.645 118.388-0.271 0.222-4.036 0.683-4.514 1.010l-9.805-2.712c-1.525-2.563-4.562-4.389-6.238-6.461-2.216-2.934-2.693-6.822-4.854-9.89-1.366-2.005-7.017-4.545-7.921-6.577-7.707-17.623 8.526-16.883 17.489-11.549 1.883 1.144 5.436 6.363 7.97 6.544 3.369 0.353 4.562-2.302 6.372-3.255 13.493-7.462 5.283-14.541 6.308-27.963 0.166-2.588 4.395-9.346 4.744-11.499 1.844-11.992-0.794-22.891-3.083-31.267-0.294 0.401-4.37 1.144-4.83 1.692-2.138 2.104-1.747 7.020-3.147 9.855-2.527 4.297-7.597 8.047-11.132 11.557-5.054 4.521-10.193 13.29-17.466 14.77-2.693 0.502-9.752-1.727-9.528-1.727-0.215-0.141-5.317 1.939-8.017-6.577-2.749-8.401 10.241-10.31 22.241-19.692l6.339-4.963zM891.346 291.303c13.69-2.337 20.008 6.789 15.931 18.010-6.079 16.776-35.843 14.573-55.653 18.141-2.686 0.452-9.957 4.506-12.625 4.932-8.479 0.97-14.391-1.621-22.337 1.578-3.909 1.529-6.483 4.144-9.472 6.625-2.965 2.423-5.936 3.707-7.994 6.534-1.97 2.793-1.549 6.526-1.549 6.526s1.717 15.642 3.164 21.479c1.089 4.488 7.072 12.217 7.954 18.010 4.099 27.898-10.553 111.64-20.621 121.628-8.954 8.737-14.581 8.294-19.054 5.029-4.578-3.362-2.98-3.073-4.838-6.592-2.407-4.77-1.636-10.062-1.535-9.879 1.446-3.231 0-5.328 1.535-8.163 2.257-4.282 8.884-7.62 11.187-11.525 0.66-1.307-0.333-3.755 0-4.965 0.937-4.57 6.652-11.317 7.875-16.423 6.040-23.879 9.765-44.017 7.946-70.788-1.462-21.217-19.228-37.014-12.633-59.076 0.564-2.377 4.363-10.653 6.317-13.184 8.63-11.697 40.627-1.684 58.792-6.609 1.304-0.395 4.832-4.438 6.365-4.957 5.968-1.966 9.711 0.056 15.853-1.659 7.406-2.055 13.937-7.628 20.698-11.433 1.596-0.979 2.271-2.885 4.693-3.24v0zM894.575 340.588c0 0 5.197 0 7.968 1.578 9.877 5.845 0.738 17.65-1.636 24.674-1.754 5.268-5.015 13.357-6.34 18.148-0.803 2.827 0.659 5.302 0 8.145-0.341 1.585-1.899 6.082-4.769 6.609-2.819 0.502-5.309-1.553-6.349-3.312-5.482-9.082-4.593-38.485 0-47.649 1.789-3.623 11.125-8.194 11.125-8.194v0zM846.509 350.142c0 0 5.323 1.174 6.794 3.509 1.754 3.125 0.827 6.279 1.613 9.914 2.82 14.417 1.907 35.279-1.613 49.327-1.47 5.335-7.088 12.881-7.946 18.1-0.397 1.776 0.556 4.793 0 6.641-2.059 5.845-8.479 16.029-9.614 22.916-2.686 15.913 3.783 29.795 20.642 24.709 2.519-0.798 4.33-5.18 6.412-6.583-1.916-14.378-12.199-32.318 6.285-23.025 13.732 6.832 16.416 22.555 19.159 41.075-0.953 2.062-2.431 4.479-6.42 4.941-3.949 0.552-4.745-0.542-6.3-1.571-1.287-0.832-1.231-1.102-3.178-4.924-2.033-3.946-4.251-2.672-4.784 0-0.977 0.576-1.622 4.924-1.622 4.924s-12.705 13.070-38.149 3.24c-9.067-6.041-12.975-31.079-7.912-46.047 1.326-3.838 6.324-9.074 7.912-13.192 3.194-8.606 3.194-16.005 6.413-24.669 1.001-2.894 5.68-7.849 6.333-11.508 2.757-16.463-6.604-24.109-7.954-36.083-1.042-9.386 0.065-14.589 4.792-18.188 2.431-1.876 2.043-1.807 6.349-3.206l2.79-0.3zM888.242 404.638c0.279 0.508 4.235 1.193 4.712 1.783 5.793 5.622 5.467 25.762 7.954 36.103 4.672 18.84 16.169 39.546 28.613 50.996 2.025 1.776 3.591 5.476 6.372 6.577 8.241 3.067 15.901 1.201 19.102 9.89 6.754 18.362-19.523 18.139-30.178 11.393-4.688-2.886-18.166-16.712-20.755-21.281-4.507-8.259-4.703-17.031-7.875-26.312-1.924-5.548-8.058-12.864-9.536-18.125-2.678-9.255-4.363-42.045-1.613-49.228l3.203-1.797zM877.085 544.463c7.827 0 19.721 3.649 25.459 6.526 24.308 12.51-31.345 13.102-44.521 9.894-22.877-5.749 8.844-16.421 19.062-16.421v0zM498.832 546.074c30.003-4.743 48.337 8.572 74.683 6.6 10.87-0.92 34.288-5.187 36.569-3.279 2.265 1.85 1.605 6.511 1.605 6.511l-3.147 3.24c-10.090 3.748-113.73 1.045-117.671-1.561-7.658-5.252 1.702-10.597 7.962-11.51v0zM818.317 546.074c9.225-0.436 17.434 2.359 19.071 4.914 1.613 2.637 2.017 4.053-1.636 6.592-3.56 2.591-49.256 1.273-74.676 3.303-34.835 2.672-118.258 3.073-120.794-3.303-2.48-6.337 2.496-6.592 6.397-8.188 7.97-3.566 22.765-1.677 33.31-1.677 25.172 0 53.652-0.116 76.409 1.677 4.974 0.321 12.491-1.373 17.376 0l3.178 3.279c15.461 1.975 27.865-6.064 41.365-6.598v0zM85.602 547.711c17.005-2.442 34.606 2.292 47.676 3.27 82.035 6.345 168.447-4.545 247.971 1.684 24.109 1.883 71.514 1.543 71.514 1.543s3.926 1.684 1.565 4.932c-2.298 3.354-26.754 0.615-41.335 1.741-80.009 6.131-166.943-4.84-249.433 1.611-9.686 0.731-26.184 2.491-38.172 1.621-3.379-0.27-8.645-2.251-14.343-1.621-2.709 0.247-9.995 4.297-12.682 4.946-10.736 2.178-21.756 1.43-31.808 0 0-0.64-2.995-2.581-1.565-8.303 1.39-5.508 11.657-10.201 20.611-11.425v0zM931.078 547.711c11.467-3.368 28.104 3.524 30.218 6.501 2.107 3.125-1.511 6.673-1.511 6.673-12.355-1.019-31.912-0.188-34.971-3.303-3.153-3.023 6.263-9.872 6.263-9.872v0zM568.749 716.997c20.748-0.6 21.875 32.534 3.242 34.539-23.098 2.507-23.886-33.94-3.242-34.539v0zM681.145 670.225c-2.176-13.75-9.614-22.070-23.679-22.070-20.828 0-27.525 20.483-27.525 38.74 0 17.679 4.308 39.627 27.343 39.627 11.234 0 20.921-8.696 23.871-24.518h16.202c-1.771 16.381-11.458 39.438-40.635 39.438-28.003 0-44.703-21.866-44.703-51.546 0-31.925 14.906-57.137 47.875-57.137 26.197 0 36.058 19.637 37.466 37.473l-16.212-0.008zM722.003 687.069c0-13.776 4.918-39.324 28.955-39.324 24.012 0 28.898 25.549 28.898 39.324 0 13.826-4.887 39.465-28.898 39.465-24.037 0-28.955-25.638-28.955-39.465v0zM704.768 687.069c0 26.584 14.365 54.373 46.19 54.373 31.768 0 46.206-27.79 46.206-54.373 0-26.558-14.431-54.308-46.206-54.308-31.823 0-46.19 27.758-46.19 54.308v0zM812.62 635.514h15.885v14.674h0.349c3.622-5.5 12.22-17.425 30.203-17.425 17.95 0 23.663 11.081 26.58 16.66 8.333-9.651 15.083-16.66 30.616-16.66 10.607 0 30.75 5.597 30.75 34.53v71.298h-16.733v-66.5c0-14.261-4.156-23.928-18.45-23.928-14.192 0-23.56 13.857-23.56 27.661v62.766h-16.772v-71.298c0-8.599-3.201-19.128-15.655-19.128-9.607 0-26.359 6.337-26.359 34.31v56.117h-16.846v-103.073l-0.009-0.003zM100.080 614.57c0 0 8.167-1.519 13.65 0 5.506 1.571 6.254 3.125 6.365 5.73 0.308 2.514-0.111 5.663-6.794 8.95-4.085 2.277-3.623 2.163-4.116 2.221-0.548 0-1.907-0.396-3.853 0.371-1.859 0.731-2.845 0.731-6.604 5.112-3.776 4.358-3.598 4.693-3.598 4.693v10.346c0 0 1.669 7.751 4.371 11.393 2.63 3.814-0.937 9.378-7.597 7.11-6.571-2.433-10.79-3.952-13.882-10.193-3.019-6.355 0.477-15.518 1.986-18.808 0 0 2.471-0.862 3.982-4.545 0 0 2.192-2.499 0.572-6.897-1.615-4.086 9.787-12.928 15.517-15.485v0zM123.895 617.364c0 0-1.089 4.102 2.464 8.819 3.512 4.774 4.586 6.938 7.438 9.707 2.995 2.745 2.75 3.241 7.912 2.942 5.283-0.207 5.475-3.855 5.283-7.307-0.279-3.428 1.167-5.76-3.631-10.899-4.719-5.246-11.822-6.913-15.518-6.756-3.798 0.322-3.948 3.496-3.948 3.496v0zM108.909 666.477c-1.836-0.173-3.989 0.067-6.619 0.822 0 0-1.859 2.596 0.778 5.286 2.614 2.631 4.107 4.908 7.827 6.641 3.638 1.807 3.457 1.997 6.372 2.499 2.973 0.568 5.283 0 8.136 1.456 2.828 1.513 7.78 4.996 8.771 8.254 1.074 3.197 0.271 7.264-0.111 10.29-0.51 3.083-0.51 3.716-0.51 3.716s0.51 2.475-5.641 5.352c-6.053 3.033-3.941 2.581-8.516 4.884-4.514 2.333-3.67 1.488-3.67 1.488s0.683 0.855-3.886-0.158c-4.553-1.053-7.333-0.494-7.802-1.053-0.357-0.38-2.973-3.008-6.968-1.16 0 0-4.522 2.163-4.999-2.244-0.325-4.309 0.723-15.14-11.132-13.99 0 0-4.967 1.925-1.741 11.053 0 0 3.027 6.493 5.61 8.614 2.536 2.119 3.545 3.017 6.532 8.558 3.011 5.598 6.794 3.847 12.697 3.922 6.023 0.098 12.721-0.101 12.721-0.101s0.746-1.947 9.144-1.208c0-0.041 5.627-2.251 9.099-7.126 0 0 8.868-1.915 10.273-9.716 0 0 1.343-1.76 1.827-8.467 0 0-0.715-3.231-2.201-7.644 0 0-0.389-2.448 0.365-5.852 0.763-3.509-0.937-8.236-3.861-12.247-2.86-3.997-8.232-8.457-12.11-9.61-3.743-1.035-3.114-0.938-3.114-0.938s-8.884 0.502-11.307-0.101c-1.416-0.403-3.313-1.079-5.967-1.22v0zM206.453 658.981c-3.448 0.855-10.813 7.143-12.143 15.274-1.374 8.164 0.088 22.039 1.763 27.749 1.701 5.852 6.937 15.775 11.513 19.884 4.647 4.018 11.433 6.125 11.433 6.125s2.305 0.091 3.734 2.27c1.272 2.178 3.172 4.62 4.48 5.983 1.175 1.289 1.398 1.289 5.857 0.89 4.464-0.543 6.588 1.735 12.755-3.495 6.174-5.169 4.172-5.481 7.446-6.985 0 0 0-0.773 1.811-1.118 1.932-0.477 8.232-1.471 11.020-10.209 2.845-8.614 4.028-13.029 3.346-20.368v-5.558c0 0-1.28-5.663-4.456-8.985l-0.421-2.359c0 0-0.716-2.621 1.312-5.054 2.043-2.4 4.355-6.304 4.355-6.304s1.328-1.99 0.73-9.231c-0.604-7.242-2.025-11.122-4.569-14.367-2.552-3.149-2.107-7.249-2.398-9.831-0.246-2.646-8.192-13.003-12.173-16.563l-1.836-2.178c0 0-5.603 1.144-9.225-1.282-3.727-2.433-5.887-1.798-8.954-1.677 0 0-3.56 2.259-5.283 4.365-1.827 2.038-1.827 2.351-1.827 2.351s-5.054 0.543-6.761 1.218c-1.795 0.625-9.805 9.527-11.433 13.908 0 0-1.026 8.327 0.294 11.129 0 0 0.7 4.84 4.235 4.332 3.545-0.558 1.796-0.163 1.796-0.163s6.874-12.748 11.713-16.291c4.76-3.617 8.677-6.181 17.846-1.504 0 0 3.72 2.499 6.548 7.496 2.901 4.9 4.609 4.004 5.943 6.781 1.422 2.845 2.637 12.141 3.768 17.064 1.065 4.89 1.065 5.328 1.065 5.328s2.693 6.627 2.464 10.282c-0.216 3.921-2.298 9.847-3.536 11.697-1.272 1.807-0.922 7.087-1.13 9.707-0.279 2.688-1.192 6.106-3.797 8.696-2.552 2.769-4.251 6.279-9.153 9.986-4.917 3.748-4.291 3.559-4.291 3.559s-6.357 4.053-12.020 0.558c-5.53-3.322-11.473-8.558-15.161-16.316-3.695-7.933-4.639-19.308-3.783-25.472 0.968-6.067 3.059-14.197 1.556-16.949-1.468-2.72-3.575-4.619-4.431-4.373v0zM326.001 609.187c0 0-7.065 1.553-7.183 4.685-0.111 3.255 0 9.099 1.048 13.060 1.009 4.028 2.78 8.696 4.043 10.126 1.24 1.398 1.867 2.073 1.867 2.073l0.286 13.851c0 0-4.928 8.754-5.182 13.167-0.286 4.488-0.929 23.286-0.803 27.102 0.088 3.912 0.166 11.337-1.503 16.095-1.612 4.946-2.265 8.655-0.516 16.785 1.811 8.203 1.811 9.378 3.083 10.85 1.374 1.529 5.864 4.309 8.693 0.212 2.78-4.037 2.845-5.59 3.339-10.857 0.365-5.343 1.653-22.729 1.207-24.453-0.398-1.702-0.929-5.976-0.929-5.976l0.644-14.984 4.020-4.9c0 0 4.41-1.776 0.659-9-3.687-7.192-5.61-11.277-5.61-11.277s-1.114-3.764-0.166-8.614c0.794-4.809 0.923-8.308 2.090-11.361 1.105-3.172 1.47-12.938 0.993-17.771-0.596-4.827-4.092-10.892-10.083-8.812v0zM374.693 608.635c0 0-5.045 4.184-5.133 9.914-0.279 5.703 1.28 7.217 1.446 8.877 0.231 1.519-2.431 6.627-1.358 11.747 1.192 5.196 4.586 8.573 4.586 8.573l0.461 1.939c0 0-0.461 3.831-2.693 6.493-2.107 2.646-2.805 4.332-5.483 5.352-2.654 0.97-13.009 1.118-17.331 2.055-4.41 0.945-5.777 7.045-0.653 8.498 5.182 1.497 16.741 1.315 16.741 1.315s4.141 1.808 4.704 6.131c0.469 4.231 0.469 12.141 0.365 19.349-0.111 7.404-0.923 31.531-0.923 31.531s-0.54 6.567 5.864 7.973c6.468 1.208 10.926-0.608 11.141-8.096 0 0-0.216-15.847-1.313-26.673-1.065-10.876-1.358-12.189-1.358-12.189l2.67-29.977-7.669-12.741c0 0-0.961-1.201 1.669-4.119 2.552-2.927 4.593-3.241 5.999-13.177 1.477-10.028 1.605-13.241 1.605-13.241s0.58-10.603-13.342-9.534v0zM457.815 611.875c0 0-2.383-4.309-7.033 0.116-4.562 4.53-7.938 8.762-7.938 8.762s-5.275 6.025 1.994 13.043c7.271 7.102 1.644 1.833 1.644 1.833s-1.121 15.126-1.121 18.726c0 3.592 1.438 5.221 1.438 8.614 0 3.288-1.272 8.689-2.043 14.829-0.724 6.125-2.647 19.208-2.034 24.102 0.738 4.856 2.398 9.854 2.273 14.605-0.166 4.734 1.382 7.741 4.784 10.66 3.465 2.804 15.233 9.822 19.196 12.125 3.933 2.277 9.258 4.267 18.712-1.717 9.289-5.953 16.208-12.108 18.037-18.502 1.907-6.385 2.002-7.882 2.002-7.882s0.454-22.317-0.437-28.005c-0.891-5.678-8.010-11.081-12.657-3.27l-0.961 1.126c0 0 1.128 14.435 0.048 21.306-0.985 7.012-1.677 10.601-7.365 14.822-5.768 4.134-13.102 6.837-20.342-1.315-7.095-8.171-7.644-10.332-7.644-22.153 0-12.008 0-31.17 0.834-37.654 0.778-6.6 4.242-25.284 1.741-34.35-2.46-9.097-3.128-9.822-3.128-9.822v0zM497.449 612.211c0 0-6.134 1.389-5.388 16.949 0.693 15.643 1.009 20.26 0.514 27.019-0.514 6.781 0.778 11.597 5.348 11.26 4.586-0.246 7.986-3.788 10.424-13.563 2.686-9.757 3.457-18.675 2.107-27.914-1.175-9.222-0.859-9.594-3.274-12.864-2.291-3.321-5.955-3.218-9.731-0.886v0z" /></svg>