<?xml version="1.0" standalone="no"?><!DOCTYPE svg PUBLIC "-//W3C//DTD SVG 1.1//EN" "http://www.w3.org/Graphics/SVG/1.1/DTD/svg11.dtd"><svg class="icon" width="200px" height="200.00px" viewBox="0 0 1024 1024" version="1.1" xmlns="http://www.w3.org/2000/svg"><path fill="#333333" d="M272.862551 531.652596c1.034563 3.443425 5.442966 5.873778 7.584746 7.925507 4.193509-1.019213 6.065136-1.209548 7.716752-1.916653 20.695345-8.853645 41.082674-18.129916 57.390082-34.43937 7.120165-7.120165 15.21861-13.253862 22.556739-20.171412 1.418302-1.337461 1.370207-4.231371 1.998517-6.407943-2.485611-0.338714-4.972245-0.913812-7.455809-0.899486-0.99977 0.005117-1.99647 1.295506-2.987031 2.01182-25.159006 18.195408-48.548716 39.441291-80.707137 45.442982C276.309046 523.69332 272.221962 529.522072 272.862551 531.652596zM614.798271 511.168052c-12.251022 0-24.016996 0-35.438117 0 0-5.78168 0-10.506285 0-16.067954 11.062963 0 21.37789 0 32.146141 0 0-5.02341 0-9.168824 0-14.999622-11.534707 0-22.079878 0-32.19219 0 0-4.973268 0-8.785084 0-13.364379 11.647271 0 22.584368 0 33.444716 0 0-5.194302 0-9.535167 0-14.06125-18.582217 0-36.282345 0-54.523801 0 0 25.186635 0 49.876967 0 74.53967 19.155269 0 37.71088 0 56.562227 0C614.798271 521.67536 614.798271 516.940522 614.798271 511.168052zM536.697495 434.985976c-6.882757 0-12.494569 0-18.85237 0 0 16.207124 0 31.626301 0 47.044456-8.670473-11.875468-15.770172-24.202215-22.783913-36.57808-7.191796-12.69002-9.701966-13.725606-24.924669-9.846252 0 30.472012 0 60.97063 0 91.726098 6.500041 0 12.388145 0 18.863626 0 0-15.546068 0-30.378891 0-45.210691 7.471159 9.948583 14.499226 19.998473 18.980283 31.079856 5.679349 14.043854 14.914688 17.865903 28.717042 13.951757C536.697495 496.078379 536.697495 465.384309 536.697495 434.985976zM409.187403 487.953328c-0.971118-10.767228-4.077875-20.192901-11.82942-28.725228-12.909008-14.210653-29.727045-14.066367-46.393633-14.811334-2.731204-0.121773-8.329712 4.553713-8.040117 5.351891 3.080152 8.468882-3.678786 10.719132-8.327666 13.82589-19.009959 12.701277-36.997636 27.509541-60.595077 31.302937-5.343705 0.858554-10.29139 2.667759-9.301853 8.882298 1.124614 7.067976 7.588839 7.092535 12.43931 5.426593 9.474792-3.254114 19.419282-6.429433 27.567869-11.987009 16.380062-11.171434 31.810496-23.760147 47.38317-36.080753 8.607028-6.809079 15.924691-5.575995 21.189601 3.849678 1.025353 1.835811 3.944845 3.587712 6.063089 3.677762 11.862165 0.50142 18.702967 8.494465 16.492626 20.324908-2.309602 12.363585-10.154267 20.891819-20.767999 26.571169-9.010211 4.821819-18.505469 8.214079-28.452006 1.060145-3.324722-2.391467-6.734378-1.39886-6.65456 3.717671 0.184195 11.786441 12.517081 20.575618 23.852244 17.090237 2.632967-0.809435 5.327332-1.477654 7.872295-2.51017C389.006781 527.890922 411.614685 510.399549 409.187403 487.953328zM392.373459 423.558715c-0.174985-12.092409-1.260713-24.442692-4.244674-36.097126-1.322112-5.166673-7.523347-11.299347-12.747325-12.866029-21.920242-6.575766-44.518936-7.003508-66.905806-2.137687-3.432169 0.74599-5.982248 5.552459-8.939603 8.480138 3.76679 1.611707 8.662287 5.603625 11.115152 4.441149 13.701047-6.492878 27.78788-2.927679 41.650609-2.894933 18.86158 0.044002 29.17139 12.087293 27.103288 30.963199-0.676405 6.178723-3.562129 11.461029-10.56052 12.028964-18.166755 1.474584-36.356023 2.698458-54.550407 3.776-9.029654 0.534166-14.8318-4.01136-15.990183-12.942777-0.731664-5.646604 0.155543-11.489682 0.122797-17.243733-0.030699-5.389754 1.179872-12.877285-6.097882-13.243629-6.758937-0.340761-7.785314 6.566556-7.764847 12.358469 0.028653 8.268314 0.084934 16.539698 0.355087 24.802896 0.423649 12.926404 10.69048 21.172205 23.437805 19.146059 2.188852-0.347924 4.481058-0.049119 9.082866-0.049119-3.569292 3.900843-5.279237 7.052626-7.91732 8.42795-11.273764 5.877871-22.158672 13.063527-35.975353 11.447726-4.799306-0.560772-10.471492 0.964978-8.843412 7.110955 0.765433 2.889817 6.473435 6.331195 9.865695 6.252401 5.89629-0.138146 11.670807-3.111874 17.607006-4.369517 17.055444-3.611248 29.523407-13.645788 39.688931-27.26804 1.38965-1.862417 3.965312-3.90596 6.068206-3.991917 11.540847-0.471744 23.109324-0.213871 34.661428-0.491187C382.751311 438.954357 392.497279 432.112532 392.373459 423.558715zM310.289975 406.680303c0.461511 7.209192 6.227842 5.060249 10.57587 4.863774 10.270924-0.465604 20.536732-1.01512 30.80561-1.529843 0.553609 0.782829 1.107217 1.564635 1.659803 2.347464 3.024893-2.241041 8.494465-4.362354 8.612145-6.746658 0.335644-6.832615-5.40715-6.442736-10.600429-6.241145-10.334369 0.401136-20.694321 0.737804-31.024597 0.441045C314.814012 399.655306 309.834604 399.574465 310.289975 406.680303zM212.111932 511.827061c-1.828648-15.71389-4.550643-31.372521-5.424546-47.13553-1.087774-19.609617-1.547239-39.273469 4.844332-58.518788 1.246387-3.752464-1.503237-10.190083-4.429893-13.70821-7.943926-9.54847-19.530822-10.285251-30.936593-9.727549-14.007015 0.684592-27.969005 2.319835-41.977044 2.904143-11.688203 0.488117-15.942087 3.038196-17.161868 14.70491-0.639566 6.121418 1.107217 12.562107 2.245134 18.772552 0.648776 3.540639 3.028986 6.851035 3.284813 10.363022 1.77646 24.292266-0.343831 48.175209-8.865925 71.197552-0.648776 1.752924-2.324952 3.1262-3.564175 4.66116l0 0 0.151449-0.106424c-0.973164 2.240017-2.870374 4.544503-2.716878 6.704702 0.268106 3.777023 1.794879 7.463995 2.794649 11.189853 3.486404-1.12666 7.306406-1.715061 10.327206-3.589758 1.699712-1.055029 2.427282-4.15053 2.995217-6.472412 3.016707-12.326746 5.844102-24.699542 8.736988-37.055964 0.912789-0.370437 1.826602-0.741897 2.739391-1.112334 1.506307 3.090385 3.664459 6.0416 4.362354 9.305947 1.007957 4.712325-0.13917 10.140964 1.726318 14.331403 1.353834 3.040243 6.098905 4.569062 9.332553 6.77224 0.421602-3.152806 1.440815-6.357801 1.164522-9.448186-1.586125-17.774829 0.484024-23.466458 17.20587-23.536043 4.568039-0.019443 9.210779 1.054005 13.679557 0.502443 2.78237-0.343831 5.302773-2.796696 7.941879-4.303003-2.136663-2.543939-3.803629-6.137791-6.531763-7.356548-3.13541-1.399883-7.617491 0.209778-10.748808-1.194198-2.530636-1.134847-5.316076-4.742001-5.426593-7.360641-0.106424-2.50403 2.6432-6.859221 4.91187-7.455809 16.467043-4.326539 23.883967 2.978844 23.454178 19.812231-0.466628 18.282389 0.604774 36.632315 1.801019 54.900378 0.178055 2.712785 4.721535 5.139044 7.246031 7.698333 2.358721-2.804882 5.230118-5.342682 6.881734-8.515954C213.139332 517.15644 212.392318 514.245134 212.111932 511.827061zM148.589177 462.089263c-4.776793 0.195451-9.525957 1.051959-14.941294 1.690502-0.172939-12.075013 1.717108-14.485923 12.8077-16.695241 4.673439-0.931209 8.547677-0.733711 9.383718 5.233188C156.638503 458.018551 155.329694 461.813994 148.589177 462.089263zM196.067514 428.003957c-2.75474 10.857279-10.504238 4.157693-18.500353 4.726651 1.609661-5.117554 2.545986-8.509814 3.755534-11.80179 0.836041-2.273786 3.108804-4.533246 2.869351-6.580882-0.484024-4.131087-2.241041-8.112772-3.473101-12.155854-2.790556 3.080152-5.836939 5.975085-8.260128 9.321296-1.160429 1.602498-1.62501 4.074805-1.563612 6.128581 0.186242 6.255471 0.914836 14.142092-6.135744 15.622816-9.221012 1.936095-19.890003 3.211135-28.468378 0.358157-10.119475-3.365654-7.194866-15.066137-7.114025-23.550369 0.070608-7.335059 5.76633-11.655458 12.544711-12.622482 12.20395-1.739621 24.52865-3.057639 36.839023-3.483334 9.363252-0.324388 18.294668 9.599635 18.534122 19.427468C197.211571 418.266176 197.250456 423.339728 196.067514 428.003957zM97.153714 486.48693c-1.902326 4.581342 0.054235 11.478426 1.986237 16.736173 1.883907 5.127787 6.466272 5.359055 10.854209 2.211365-1.095961-5.568832-1.551332-11.379165-3.441379-16.677844C104.913445 484.167095 99.293447 481.33356 97.153714 486.48693zM59.277058 425.671842c2.723018 2.674922 3.903913 8.476045 3.343141 12.504802-0.576121 4.139274-3.874237 8.052396-6.457062 11.730159-6.448876 9.181103-3.796466 24.839735 5.155417 27.9117 4.883217 1.676176 9.979282 2.851954 15.063067 3.799536 8.750291 1.630127 28.049846-9.677407 30.930453-17.924231 0.396019-1.133823 0.805342-2.530636 0.497327-3.601015-2.246157-7.806803-3.423983-16.270569-7.334036-23.168676-6.033413-10.643408-6.121418-12.986779 3.842515-19.796882 2.199085-1.503237 4.164856-5.226025 4.085038-7.861038-0.356111-11.833513-9.755178-15.827477-20.261463-8.994861 4.628414 7.570419 2.578732 16.645099-5.974062 20.74344-3.273557 1.568728-9.108448 0.948605-12.143575-1.096984-2.639107-1.778506-4.904707-7.563256-3.987824-10.55131 3.415796-11.133571 7.810896-21.808702 22.093181-23.650653 6.758937-0.871857 7.968485-5.815449 3.592828-10.239202-4.604878-4.656043-17.301038-5.248537-21.056572-0.056282-6.247284 8.636704-12.360516 17.576307-16.969487 27.140127C48.376801 413.593759 50.424436 416.975786 59.277058 425.671842zM70.188572 447.569572c8.173147-11.155061 13.220093-14.553461 19.185968-9.395998 6.901177 5.965875 8.655124 14.57495 4.823865 22.452361-2.035356 4.184299-8.046257 6.434549-11.528568 9.013281-6.479575-1.734504-11.264555-1.789763-14.405081-4.089132C59.495022 459.127815 66.797335 452.197986 70.188572 447.569572zM144.143934 413.399331c-0.74599 6.77531 5.318122 16.058744 9.281387 14.801101 2.060939-0.653893 3.254114-4.042059 6.208399-8.054443-3.888564-4.767584-7.333012-8.990768-10.777461-13.213953C147.211806 409.079956 144.397714 411.098939 144.143934 413.399331zM181.25925 493.825059c-5.615904-0.192382-11.474332 1.031493-16.864086 2.804882-2.059915 0.677429-4.510734 4.618181-4.214998 6.707772 0.273223 1.928932 3.985778 3.370771 4.480035 3.743254 7.224542-0.393973 12.181437-0.051165 16.792455-1.155313 2.564405-0.613984 4.551666-3.637854 6.798846-5.575995C185.924503 498.05029 183.66095 493.906923 181.25925 493.825059zM63.012126 492.320798c-0.183172-1.477654-1.559519-3.28072-2.89698-3.974521-0.881067-0.457418-3.240811 0.382717-3.931542 1.355881-6.647397 9.372461-10.898211 19.735483-11.114129 31.336706-0.034792 1.876744 2.109034 5.210675 3.526313 5.370311 2.180666 0.245593 5.881964-1.064238 6.703679-2.78237 3.465938-7.248078 6.105045-14.891152 9.046027-22.390963-0.566912-0.226151-1.133823-0.452301-1.701758-0.678452C62.814628 497.80572 63.345724 495.009024 63.012126 492.320798zM80.07371 491.942175c-1.704828-0.122797-4.565992 1.959631-5.200442 3.699252-1.333368 3.657296-1.541099 7.724938-2.243087 11.81714 0.727571 4.439102 1.091868 9.05319 2.368954 13.398148 0.586354 1.9934 2.963495 3.459798 4.529153 5.164626 1.77032-1.821485 4.91187-3.530406 5.072529-5.484921 0.664126-8.076956 0.695848-16.240893 0.289596-24.339338C84.811618 494.599701 81.849146 492.070088 80.07371 491.942175zM110.126166 505.341347l-0.13303 0.093121c0.00307 0.016373 0.00614 0.032746 0.00921 0.049119 0.023536-0.022513 0.275269-0.248663 0.275269-0.248663l-0.25071 0.226151C110.057605 505.421164 110.093421 505.382279 110.126166 505.341347zM684.514075 635.738186c4.889357 0 9.233292 0 13.552667 0 0-4.856611 0-8.995885 0-13.57518-4.677533 0-8.807596 0-13.552667 0C684.514075 627.319445 684.514075 631.450533 684.514075 635.738186zM407.017994 602.488921c5.564739-2.391467 11.041474-4.745071 17.672498-7.594979 0 18.689664 0 36.286438 0 54.238298 6.224772 0 11.535731 0 17.154705 0 0-23.330358 0-46.087665 0-68.762083C419.327344 577.139579 403.184689 587.248821 407.017994 602.488921zM348.116489 635.736139c4.889357 0 9.205663 0 13.661138 0 0-4.811586 0-8.916067 0-13.299911-4.92108 0-9.232269 0-13.661138 0C348.116489 627.279536 348.116489 631.386064 348.116489 635.736139zM686.884053 468.793966c-0.390903-6.211469-0.714268-11.346419-1.051959-16.72287-21.261233 0-41.805128 0-62.042032 0 0 6.15314 0 11.496845 0 16.274662 7.342222 1.098008 16.511046-0.128937 19.568684 3.624551 3.362584 4.126994 1.212618 12.834306 1.263783 19.548218 0.089028 11.786441 0.024559 23.573905 0.024559 35.638685 7.593955 0 13.59053 0 20.927635 0 0-19.566638 0-38.116109 0-57.147558C672.987554 469.584981 679.789471 469.198172 686.884053 468.793966zM551.376823 625.623827c-0.366344-9.826809-6.025227-17.887392-16.129352-19.708877-7.661494-1.381463-15.771195-0.274246-24.385387-0.274246 0.828878-3.242857 1.37737-7.848759 3.187599-11.890818 2.790556-6.230911 12.4608-9.018398 15.129582-4.076852 5.154393 9.546424 12.499685 5.812379 22.064528 6.007831-3.527336-5.339612-5.309936-10.174734-8.759501-12.890588-14.856359-11.695367-40.681538-4.750187-45.74895 13.340843-3.115967 11.125385-2.784416 23.52581-2.236947 35.272341 0.458441 9.8176 7.330966 16.809851 17.057491 17.778922 8.555863 0.852414 17.708314 0.104377 26.019607-2.109034C547.260062 644.493593 551.759539 635.899868 551.376823 625.623827zM533.395286 629.296473c-0.533143 6.336312-3.264347 11.828396-11.301394 12.142551-6.551206 0.255827-11.511171-6.460132-11.036357-14.229073 0.494257-8.094352 5.695722-13.385868 12.570293-12.786211C530.073634 614.985536 533.847587 620.401896 533.395286 629.296473zM240.600777 608.592942c2.836605 12.19474 5.810333 24.385387 8.452509 36.647665 0.963954 4.475941 1.581008 7.955182 7.719822 7.90197 5.558599-0.048095 8.31027-1.673106 9.609869-7.139607 1.407046-5.918803 3.701299-11.627828 5.607718-17.427928 0.64059 0.010233 1.281179 0.021489 1.921769 0.031722 2.140757 6.625908 3.742231 13.509688 6.704702 19.745716 1.096984 2.309602 5.367241 4.175089 8.241708 4.249791 2.435469 0.062422 6.579859-2.292206 7.157004-4.361331 3.730974-13.378705 6.690376-26.971281 9.930163-40.606837-20.921495-5.078669-12.58155 14.07353-19.632129 21.263279-1.665942-5.099135-3.566222-9.873882-4.749164-14.820544-1.25048-5.228071-3.603061-7.597025-9.44614-7.513114-5.809309 0.082888-7.142677 3.115967-8.178263 7.710612-1.034563 4.590552-2.681062 9.04398-4.842285 16.124236-1.788739-6.643304-2.961448-10.67206-3.953032-14.744819C252.690116 605.568049 251.427356 604.91211 240.600777 608.592942zM43.224454 607.227852c0 0.613984 0 1.226944 0 1.840928 3.986801 14.543228 7.972579 29.086455 11.758812 42.899042 9.726525 3.112897 14.582113-0.11154 16.20917-9.367345 0.862647-4.909823 3.101641-9.578146 5.52483-16.737196 2.944052 9.185196 4.609994 15.977903 7.408737 22.26612 0.99363 2.231831 4.666276 4.320399 7.254218 4.502547 2.682086 0.188288 7.492648-1.463328 7.998161-3.258207 3.849678-13.691837 6.874571-27.616988 10.188037-41.606607-21.132296-5.362124-12.402471 14.46034-19.721157 21.155832-1.837858-5.724375-2.937912-11.526521-5.603625-16.487509-1.419326-2.641153-5.491061-5.127787-8.473999-5.26184-2.438539-0.109494-6.088672 2.848884-7.343245 5.371334-2.38635 4.799306-3.443425 10.258645-5.389754 16.531512C57.363476 619.754143 62.698994 601.765443 43.224454 607.227852zM809.018717 568.070017c58.882062-0.276293 117.763101-0.883113 176.644139-1.338485 0-1.840928 0-3.681856 0-5.52176-10.69355-0.23843-21.388123-0.726547-32.079626-0.677429-298.721499 1.356904-597.442998 2.769067-896.164496 4.168949-3.919263 0.01842-7.838525 0.002047-11.932774 0.002047-0.738827 10.226922 6.414083 6.589069 9.979282 6.576789C306.650075 570.349943 557.834908 569.250912 809.018717 568.070017zM142.03797 608.442516c3.444449 14.743796 6.892991 29.508058 10.257621 43.912116 13.05841 1.045819 13.005198 1.028423 16.438391-9.612938 1.565658-4.854565 3.388167-9.627265 5.804193-16.439414 3.364631 10.100032 6.027274 18.093077 9.314133 27.959795 4.79112-1.635243 12.254092-2.160199 13.110599-4.816702 4.363378-13.524015 7.017834-27.600615 10.266831-41.46539-9.221012-2.969635-14.488992-1.339508-15.263635 8.53028-0.314155 4.001127-2.051729 7.890714-3.858888 14.425547-2.351558-7.689123-4.142343-12.5662-5.296633-17.58961-1.156336-5.031597-3.711532-6.843872-8.971325-6.757914-4.934382 0.080841-7.093559 1.905396-8.179286 6.508227-1.210571 5.130857-3.096525 10.103102-4.688789 15.143908-2.367931-4.163833-3.177366-8.040117-4.034896-11.906168C154.60417 605.820805 153.662729 605.288686 142.03797 608.442516zM583.659063 633.341602c2.742461 5.701862 5.742794 11.577686 10.476609 13.863752 12.283768 5.932106 25.260314 4.833075 37.116339-1.763157 11.44261-6.365988 11.859096-20.213367 1.416256-28.203342-1.790786-1.370207-3.831258-2.413979-5.954619-3.731998 12.159948-8.311293 15.787568-15.395642 11.489682-23.276123-5.38873-9.881045-15.316847-11.761881-25.228591-12.276604-10.075473-0.522909-19.771299 1.330298-25.665543 10.9504-1.296529 2.116197-1.489934 4.9088-2.403746 8.143471 8.325619-0.188288 16.07307 3.696182 20.989033-5.979178 1.078565-2.122337 7.351432-3.140527 10.501168-2.205225 2.676969 0.795109 5.770424 5.033643 5.976108 7.939833 0.207731 2.930749-2.176572 7.299243-4.751211 8.881274-3.974521 2.442632-9.076726 3.048429-14.154371 4.569062 0 2.070148 0 4.418636 0 7.29515 4.740978 1.211595 9.55768 1.304715 12.809747 3.607154 3.028986 2.143826 6.16849 6.736425 5.987365 10.072403-0.180102 3.320629-3.880377 8.098445-7.05365 9.140171-3.102664 1.019213-9.645684-0.754177-10.934027-3.240811C598.977957 626.898867 591.619362 631.756501 583.659063 633.341602zM826.930669 459.412294c-2.119267-6.580882-5.279237-8.42795-12.224416-8.92016-10.645454-0.753153-16.442484 2.415003-18.326391 13.122879-0.892323 5.069459-3.106758 9.907651-4.735861 14.846126-5.209652 15.788591-10.426467 31.575136-15.870456 48.059576 4.030803 0.198521 6.751774 0.285502 9.464559 0.476861 6.694469 0.470721 13.036921 0.757247 13.709233-8.708336 0.092098-1.290389 3.417843-3.240811 5.336542-3.353374 6.959505-0.406253 13.956873-0.160659 20.754696-0.160659 1.177825 4.397147 2.097778 7.832386 2.993171 11.178597 7.322779 0 13.96199 0 21.438265 0C841.766562 503.375575 834.039577 481.493196 826.930669 459.412294zM805.549709 497.731018c1.782599-7.730055 3.439332-14.912641 5.096065-22.095227 0.659009-0.035816 1.316995-0.070608 1.976004-0.106424 2.050706 7.116071 4.101411 14.231119 6.398734 22.201651C814.145481 497.731018 810.393018 497.731018 805.549709 497.731018zM762.135944 505.917468c-13.20986 0-25.626657 0-38.294165 0 0-6.53688 0-12.150738 0-18.697851 12.251022 0 23.777543 0 35.326577 0 0-6.623861 0-12.301164 0-19.050891-12.072967 0-23.572882 0-35.386952 0 0-5.815449 0-10.531867 0-16.068977 12.509918 0 24.353664 0 36.512588 0 0-6.706749 0-12.573363 0-18.535145-19.521612 0-38.355563 0-57.408501 0 0 31.40936 0 62.190411 0 93.332688 19.996426 0 39.479153 0 59.251475 0C762.135944 519.263427 762.135944 513.028423 762.135944 505.917468zM915.494751 503.009232c0.179079-9.112542-2.7486-16.331967-11.56029-19.987217-7.322779-3.037173-14.97097-5.316076-22.194488-8.555863-2.648316-1.188058-5.353938-3.844561-6.345522-6.469342-0.511653-1.353834 2.51017-5.695722 4.235464-5.879917 3.188622-0.340761 8.55177 0.384763 9.589402 2.415003 5.700839 11.147898 14.721283 6.643304 23.158443 6.813173-2.780323-18.018376-17.10968-26.185382-36.980239-21.872147-12.532431 2.720971-18.461467 8.846482-19.307741 19.946284-0.817622 10.723226 4.623297 18.36016 16.331967 22.536272 4.891404 1.744737 10.283204 2.425236 14.771425 4.845355 3.319605 1.790786 6.328126 5.263887 7.851828 8.706289 0.568958 1.285273-3.368724 6.506181-5.4225 6.612605-4.50971 0.232291-12.347213-0.524956-13.165858-2.861164-4.383844-12.507872-13.163811-7.198959-21.421892-7.128351-0.966001 11.124362 4.006244 17.857716 12.224416 21.931498 11.935843 5.916756 24.555256 5.333472 36.431747 0.168846C912.354224 520.464789 915.312602 512.286526 915.494751 503.009232zM750.919485 643.550105c9.369392 9.949606 26.14445 9.596566 37.028335-0.777713-0.046049-1.204431-0.092098-2.408863-0.13917-3.613294-4.031826 0.203638-8.193613-0.155543-12.06785 0.734734-7.033184 1.6158-14.426571 2.359744-17.84953-4.752234-1.962701-4.076852-1.567705-11.131525 0.782829-15.024182 3.886517-6.434549 11.332093-7.475252 17.876136-3.454682 5.659907 3.477194 8.735965 1.158383 12.180414-2.740414-11.037381-10.995425-27.360138-11.680017-37.316907-1.905396C742.705406 620.568694 742.485395 634.594129 750.919485 643.550105zM983.233528 509.351684c-12.125155 0-23.859407 0-35.953863 0 0-5.476735 0-9.645684 0-15.07023 10.911514 0 21.487384 0 32.355919 0 0-5.64558 0-10.029424 0-15.506159-11.175527 0-21.718651 0-32.354895 0 0-4.940522 0-8.757454 0-13.662161 12.278651 0 24.046672 0 35.933397 0 0-5.26798 0-9.425673 0-14.08274-18.399045 0-36.346813 0-54.960753 0 0 25.498744 0 50.094932 0 74.563206 18.702967 0 36.645618 0 54.981219 0C983.233528 520.145517 983.233528 515.402493 983.233528 509.351684zM857.246115 605.26822c-12.781094-0.176009-22.867824 9.558703-23.01825 22.213931-0.152473 12.849656 9.454326 22.754237 22.274306 22.965038 13.048177 0.213871 23.889083-10.118452 23.839965-22.721491C880.296087 615.371322 870.086561 605.445252 857.246115 605.26822zM856.565617 640.602983c-7.192819-0.220011-12.031011-5.812379-11.691273-13.513782 0.306992-6.949272 5.647627-12.326746 12.212136-12.298094 6.788613 0.029676 12.623505 6.225795 12.471033 13.241582C869.399923 635.223462 863.61722 640.817877 856.565617 640.602983zM925.641855 648.857994c2.927679 0 5.411243 0 8.904811 0 0-8.879228-0.740874-17.210987 0.364297-25.289989 0.443092-3.237741 4.947685-5.919826 7.604188-8.854669 2.156106 3.237741 5.782703 6.307659 6.173606 9.745968 0.919952 8.081049 0.294712 16.337083 0.294712 24.591071 3.63069 0 5.950526 0 9.654894 0 0-8.956999-0.732687-17.563004 0.381693-25.924439 0.411369-3.084245 5.175883-5.588275 7.954159-8.356318 1.977028 3.059686 5.334495 5.981225 5.658883 9.207709 0.818645 8.130168 0.271176 16.397459 0.271176 24.874527 3.520173 0 6.003737 0 9.051143 0 0-9.204639-0.022513-17.751293 0.007163-26.297946 0.022513-6.695492-0.514723-14.170744-7.789407-15.998369-5.061272-1.27197-11.103896 1.359974-17.602913 2.38942-4.3951-0.900509-9.622148-2.601244-14.922874-2.877537-5.223978-0.272199-10.523681 0.900509-16.006556 1.461281C925.641855 621.210307 925.641855 634.880655 925.641855 648.857994z" /></svg>